<svg height="480" viewBox="0 0 480 480" width="480" xmlns="http://www.w3.org/2000/svg"><g fill="none" fill-rule="evenodd"><circle cx="240" cy="240" fill="#eb5c6a" r="240"/><g fill="#fff" transform="translate(53 38)"><path d="m187 225.577703v178.422297c-12.990078 0-25.693771-1.226162-38.001652-3.569061l.001652-75.687523c0-.367466-.059242-.732529-.175445-1.081138-.597096-1.79129-2.533266-2.759374-4.324555-2.162278l-1.423025.474342c-1.83754.612513-3.076975 2.332138-3.076975 4.269074l-.00211 72.259562c-10.330404-2.461837-20.353046-5.717171-29.999943-9.69802l.002053-50.061542c0-.367466-.059242-.732529-.175445-1.081138-.597096-1.79129-2.533266-2.759374-4.324555-2.162278l-1.423025.474342c-1.83754.612513-3.076975 2.332138-3.076975 4.269074l-.002865 44.586519c-10.5297331-4.961816-20.5614797-10.806498-29.9997886-17.438596l.0026536-14.647923c0-.367466-.0592416-.732529-.1754447-1.081138-.5970965-1.79129-2.5332658-2.759374-4.3245553-2.162278l-1.4230249.474342c-1.8375397.612513-3.0769751 2.332138-3.0769751 4.269074l-.0028568 6.443931c-12.5304227-9.884166-23.86194-21.220702-33.7406064-33.755663l.004159-44.247964zm0-43.577703v26.389211l-177.74484315 65.03936v-11.747315l-9.25515685-6.222611zm-.119498-92-.000502 3.225.12-.0403578v70.4864068l-.12.036951.000502.650549-163.880502 63.641451v-16.485693l.119-.046307v-11.982l-.119.046651v-16.485693l.119-.046958v-12.6l-.119.046447v-16.485693zm-108.229502 87.92-37.654 14.623v11.947l37.654-14.696zm45-17.475-36 13.98v11.856l36-14.05zm-45-11.611-37.654 14.623v12.565l37.654-14.696zm90.471-6.047-36.471 14.163v11.768l36.471-14.234zm-45.471-11.428-36 13.98v12.475l36-14.05zm45.471-17.659-36.471 14.164v12.387l36.471-14.234zm17.878-113.7v74l-12 4-.001266-77.64938725c3.970695-.23265346 7.972205-.35061275 12.001266-.35061275z"/><path d="m374 225.577703v178.422297c-8.809917 0-17.488108-.563986-26.000437-1.657822l.000437-82.598762c0-.367466-.059242-.732529-.175445-1.081138-.597096-1.79129-2.533266-2.759374-4.324555-2.162278l-1.423025.474342c-1.83754.612513-3.076975 2.332138-3.076975 4.269074l-.00112 79.735156c-8.529252-1.489977-16.87458-3.51498-25.000127-6.03915l.001247-63.196006c0-.367466-.059242-.732529-.175445-1.081138-.597096-1.79129-2.533266-2.759374-4.324555-2.162278l-1.423025.474342c-1.83754.612513-3.076975 2.332138-3.076975 4.269074l-.001576 58.664453c-8.622744-3.133723-16.97165-6.837986-25.001077-11.067149l.002653-37.097304c0-.367466-.059242-.732529-.175445-1.081138-.597096-1.79129-2.533266-2.759374-4.324555-2.162278l-1.423025.474342c-1.83754.612513-3.076975 2.332138-3.076975 4.269074l-.002324 30.558881c-7.675935-4.558885-15.024056-9.611811-22.000533-15.11495l.002857-4.943931c0-.367466-.059242-.732529-.175445-1.081138-.597096-1.79129-2.533266-2.759374-4.324555-2.162278l-1.423025.474342c-.740862.246954-1.3845.673875-1.888879 1.222446-9.464903-8.258641-18.149079-17.389977-25.931559-27.265104l.004159-44.247964zm0-43.577703v26.389211l-177.744843 65.03936v-11.747315l-9.255157-6.222611zm-.119498-92-.000502 3.225.12-.0403578v70.4864068l-.12.036951.000502.650549-163.880502 63.641451v-16.485693l.119-.046307v-11.982l-.119.046651v-16.485693l.119-.046958v-12.6l-.119.046447v-16.485693zm-108.229502 87.92-37.654 14.623v11.947l37.654-14.696zm45-17.475-36 13.98v11.856l36-14.05zm-45-11.611-37.654 14.623v12.565l37.654-14.696zm90.471-6.047-36.471 14.163v11.768l36.471-14.234zm-45.471-11.428-36 13.98v12.475l36-14.05zm45.471-17.659-36.471 14.164v12.387l36.471-14.234zm17.878-113.7v74l-12 4-.001266-77.64938725c3.970695-.23265346 7.972205-.35061275 12.001266-.35061275z" opacity=".5" transform="matrix(-1 0 0 1 561 0)"/></g></g></svg>