<?xml version="1.0" encoding="UTF-8"?>
<svg width="480px" height="480px" viewBox="0 0 480 480" version="1.1" xmlns="http://www.w3.org/2000/svg" xmlns:xlink="http://www.w3.org/1999/xlink">
    <title>torentje</title>
    <defs>
        <circle id="path-1" cx="240" cy="240" r="240"></circle>
    </defs>
    <g id="torentje" stroke="none" stroke-width="1" fill="none" fill-rule="evenodd">
        <g id="Cirkel">
            <mask id="mask-2" fill="white">
                <use xlink:href="#path-1"></use>
            </mask>
            <use id="Oval-2" fill="#000000" xlink:href="#path-1"></use>
        </g>
        <g id="Toren" transform="translate(53.000000, -67.000000)" fill="#FFFFFF">
            <path d="M187,330.577703 L187,509 C174.009922,509 161.306229,507.773838 148.998348,505.430939 L149,429.743416 C149,429.37595 148.940758,429.010887 148.824555,428.662278 C148.227459,426.870988 146.291289,425.902904 144.5,426.5 L144.5,426.5 L143.076975,426.974342 C141.239435,427.586855 140,429.30648 140,431.243416 L140,431.243416 L139.99789,503.502978 C129.667486,501.041141 119.644844,497.785807 109.997947,493.804958 L110,443.743416 C110,443.37595 109.940758,443.010887 109.824555,442.662278 C109.227459,440.870988 107.291289,439.902904 105.5,440.5 L105.5,440.5 L104.076975,440.974342 C102.239435,441.586855 101,443.30648 101,445.243416 L101,445.243416 L100.997135,489.829935 C90.4674019,484.868119 80.4356553,479.023437 70.9973464,472.391339 L71,457.743416 C71,457.37595 70.9407584,457.010887 70.8245553,456.662278 C70.2274588,454.870988 68.2912895,453.902904 66.5,454.5 L66.5,454.5 L65.0769751,454.974342 C63.2394354,455.586855 62,457.30648 62,459.243416 L62,459.243416 L61.9971432,465.687347 C49.4667205,455.803181 38.1352032,444.466645 28.2565368,431.931684 L28.2606958,387.68372 L187,330.577703 Z M187,287 L187,313.389211 L9.25515685,378.428571 L9.25515685,366.681256 L0,360.458645 L187,287 Z" id="Wand"></path>
            <path d="M374,330.577703 L374,509 C365.190083,509 356.511892,508.436014 347.999563,507.342178 L348,424.743416 C348,424.37595 347.940758,424.010887 347.824555,423.662278 C347.227459,421.870988 345.291289,420.902904 343.5,421.5 L343.5,421.5 L342.076975,421.974342 C340.239435,422.586855 339,424.30648 339,426.243416 L339,426.243416 L338.99888,505.978572 C330.469628,504.488595 322.1243,502.463592 313.998753,499.939422 L314,436.743416 C314,436.37595 313.940758,436.010887 313.824555,435.662278 C313.227459,433.870988 311.291289,432.902904 309.5,433.5 L309.5,433.5 L308.076975,433.974342 C306.239435,434.586855 305,436.30648 305,438.243416 L305,438.243416 L304.998424,496.907869 C296.37568,493.774146 288.026774,490.069883 279.997347,485.84072 L280,448.743416 C280,448.37595 279.940758,448.010887 279.824555,447.662278 C279.227459,445.870988 277.291289,444.902904 275.5,445.5 L275.5,445.5 L274.076975,445.974342 C272.239435,446.586855 271,448.30648 271,450.243416 L271,450.243416 L270.997676,480.802297 C263.321741,476.243412 255.97362,471.190486 248.997143,465.687347 L249,460.743416 C249,460.37595 248.940758,460.010887 248.824555,459.662278 C248.227459,457.870988 246.291289,456.902904 244.5,457.5 L244.5,457.5 L243.076975,457.974342 C242.336113,458.221296 241.692475,458.648217 241.188096,459.196788 C231.723193,450.938147 223.039017,441.806811 215.256537,431.931684 L215.260696,387.68372 L374,330.577703 Z M374,287 L374,313.389211 L196.255157,378.428571 L196.255157,366.681256 L187,360.458645 L374,287 Z" id="Wand-Copy" opacity="0.400000006" transform="translate(280.500000, 398.000000) scale(-1, 1) translate(-280.500000, -398.000000) "></path>
            <path d="M186.880502,195 L186.88,198.225 L187,198.184642 L187,268.671049 L186.88,268.708 L186.880502,269.358549 L23,333 L23,316.514307 L23.119,316.468 L23.119,304.486 L23,304.532651 L23,288.046958 L23.119,288 L23.119,275.4 L23,275.446447 L23,258.960754 L186.880502,195 Z M78.651,282.92 L40.997,297.543 L40.997,309.49 L78.651,294.794 L78.651,282.92 Z M123.651,265.445 L87.651,279.425 L87.651,291.281 L123.651,277.231 L123.651,265.445 Z M78.651,253.834 L40.997,268.457 L40.997,281.022 L78.651,266.326 L78.651,253.834 Z M169.122,247.787 L132.651,261.95 L132.651,273.718 L169.122,259.484 L169.122,247.787 Z M123.651,236.359 L87.651,250.339 L87.651,262.814 L123.651,248.764 L123.651,236.359 Z M169.122,218.7 L132.651,232.864 L132.651,245.251 L169.122,231.017 L169.122,218.7 Z M187,0 L187,179 L175,183 L175,0 L187,0 Z" id="Hek"></path>
            <path d="M350.880502,195 L350.88,198.225 L351,198.184642 L351,268.671049 L350.88,268.708 L350.880502,269.358549 L187,333 L187,316.514307 L187.119,316.468 L187.119,304.486 L187,304.532651 L187,288.046958 L187.119,288 L187.119,275.4 L187,275.446447 L187,258.960754 L350.880502,195 Z M242.651,282.92 L204.997,297.543 L204.997,309.49 L242.651,294.794 L242.651,282.92 Z M287.651,265.445 L251.651,279.425 L251.651,291.281 L287.651,277.231 L287.651,265.445 Z M242.651,253.834 L204.997,268.457 L204.997,281.022 L242.651,266.326 L242.651,253.834 Z M333.122,247.787 L296.651,261.95 L296.651,273.718 L333.122,259.484 L333.122,247.787 Z M287.651,236.359 L251.651,250.339 L251.651,262.814 L287.651,248.764 L287.651,236.359 Z M333.122,218.7 L296.651,232.864 L296.651,245.251 L333.122,231.017 L333.122,218.7 Z M351,0 L351,179 L339,183 L339,0 L351,0 Z" id="Hek" opacity="0.400000006" transform="translate(269.000000, 166.500000) scale(-1, 1) translate(-269.000000, -166.500000) "></path>
        </g>
    </g>
</svg>